<svg width="100%" viewBox="0 0 680 520" role="img" xmlns="http://www.w3.org/2000/svg">
<title>EduSphere Hero Illustration</title>
<desc>Academic illustration with books, graduation cap, stars and glowing orb for EduSphere platform</desc>
<defs>
  <radialGradient id="orb" cx="50%" cy="50%" r="50%">
    <stop offset="0%" stop-color="#d4a843" stop-opacity="0.35"/>
    <stop offset="60%" stop-color="#c084fc" stop-opacity="0.18"/>
    <stop offset="100%" stop-color="#1e1b2e" stop-opacity="0"/>
  </radialGradient>
  <radialGradient id="glow1" cx="50%" cy="50%" r="50%">
    <stop offset="0%" stop-color="#d4a843" stop-opacity="0.5"/>
    <stop offset="100%" stop-color="#d4a843" stop-opacity="0"/>
  </radialGradient>
  <radialGradient id="glow2" cx="50%" cy="50%" r="50%">
    <stop offset="0%" stop-color="#818cf8" stop-opacity="0.6"/>
    <stop offset="100%" stop-color="#818cf8" stop-opacity="0"/>
  </radialGradient>
  <radialGradient id="bggrad" cx="50%" cy="40%" r="60%">
    <stop offset="0%" stop-color="#1e1b2e"/>
    <stop offset="100%" stop-color="#0e0c1a"/>
  </radialGradient>
</defs>

<rect width="680" height="520" fill="url(#bggrad)" rx="18"/>

<ellipse cx="340" cy="210" rx="180" ry="160" fill="url(#orb)" opacity="0.9"/>
<ellipse cx="200" cy="380" rx="90" ry="60" fill="url(#glow2)" opacity="0.3"/>
<ellipse cx="500" cy="150" rx="70" ry="50" fill="url(#glow1)" opacity="0.25"/>

<circle cx="80"  cy="60"  r="1.5" fill="#fde68a" opacity="0.9"/>
<circle cx="140" cy="40"  r="1"   fill="#fde68a" opacity="0.7"/>
<circle cx="210" cy="80"  r="2"   fill="#fff"    opacity="0.6"/>
<circle cx="310" cy="30"  r="1.5" fill="#c4b5fd" opacity="0.8"/>
<circle cx="420" cy="55"  r="1"   fill="#fde68a" opacity="0.7"/>
<circle cx="530" cy="35"  r="2"   fill="#fff"    opacity="0.5"/>
<circle cx="600" cy="70"  r="1.5" fill="#c4b5fd" opacity="0.8"/>
<circle cx="650" cy="110" r="1"   fill="#fde68a" opacity="0.6"/>
<circle cx="60"  cy="200" r="1"   fill="#fff"    opacity="0.4"/>
<circle cx="620" cy="200" r="1.5" fill="#c4b5fd" opacity="0.6"/>
<circle cx="490" cy="90"  r="1"   fill="#fff"    opacity="0.5"/>
<circle cx="160" cy="140" r="1"   fill="#fde68a" opacity="0.5"/>
<circle cx="570" cy="140" r="1.5" fill="#fff"    opacity="0.4"/>

<circle cx="340" cy="200" r="88" fill="none" stroke="#d4a843" stroke-width="0.8" opacity="0.25"/>
<circle cx="340" cy="200" r="68" fill="none" stroke="#d4a843" stroke-width="0.5" opacity="0.35"/>
<circle cx="340" cy="200" r="50" fill="#d4a843" opacity="0.08"/>
<circle cx="340" cy="200" r="34" fill="#d4a843" opacity="0.12"/>
<circle cx="340" cy="200" r="20" fill="#d4a843" opacity="0.22"/>
<circle cx="328" cy="188" r="7"  fill="#fff"    opacity="0.15"/>

<path d="M318 196 Q330 190 340 196 Q350 190 362 196 L362 210 Q350 205 340 210 Q330 205 318 210 Z" fill="#fde68a" opacity="0.85"/>
<line x1="340" y1="196" x2="340" y2="210" stroke="#0e0c1a" stroke-width="1" opacity="0.4"/>
<path d="M317 210 Q340 214 363 210" fill="none" stroke="#fde68a" stroke-width="1.2" opacity="0.6"/>

<g transform="translate(390, 140)">
  <polygon points="0,-14 20,0 0,6 -20,0" fill="#c4b5fd" opacity="0.9"/>
  <rect x="-4" y="4" width="8" height="12" rx="1" fill="#a78bfa" opacity="0.8"/>
  <line x1="20" y1="0" x2="20" y2="14" stroke="#a78bfa" stroke-width="1.5" opacity="0.7"/>
  <circle cx="20" cy="15" r="3" fill="#fde68a" opacity="0.8"/>
</g>

<g transform="translate(110, 310)">
  <rect x="0" y="60" width="110" height="22" rx="3" fill="#4f46e5" opacity="0.85"/>
  <rect x="0" y="60" width="8"   height="22" rx="2" fill="#6366f1" opacity="0.9"/>
  <rect x="6" y="36" width="100" height="22" rx="3" fill="#7c3aed" opacity="0.85"/>
  <rect x="6" y="36" width="8"   height="22" rx="2" fill="#8b5cf6" opacity="0.9"/>
  <rect x="10" y="12" width="90"  height="22" rx="3" fill="#d4a843" opacity="0.9"/>
  <rect x="10" y="12" width="8"   height="22" rx="2" fill="#fbbf24" opacity="0.95"/>
  <line x1="26" y1="19" x2="88" y2="19" stroke="#0e0c1a" stroke-width="1" opacity="0.25"/>
  <line x1="26" y1="25" x2="76" y2="25" stroke="#0e0c1a" stroke-width="1" opacity="0.15"/>
</g>

<g transform="translate(155, 155) rotate(-35)">
  <rect x="0" y="0" width="10" height="52" rx="2" fill="#fde68a" opacity="0.8"/>
  <polygon points="0,52 10,52 5,65" fill="#f87171" opacity="0.85"/>
  <rect x="0" y="0" width="10" height="8" rx="2" fill="#9ca3af" opacity="0.7"/>
</g>

<g transform="translate(505, 240) rotate(20)">
  <rect x="0" y="0" width="9" height="48" rx="2" fill="#818cf8" opacity="0.8"/>
  <polygon points="0,48 9,48 4.5,60" fill="#e0e7ff" opacity="0.7"/>
  <rect x="0" y="0" width="9" height="7" rx="2" fill="#6366f1" opacity="0.9"/>
</g>

<g transform="translate(490, 310)">
  <rect x="0"  y="20" width="70" height="17" rx="2" fill="#0ea5e9" opacity="0.8"/>
  <rect x="0"  y="20" width="6"  height="17" rx="1" fill="#38bdf8" opacity="0.9"/>
  <rect x="4"  y="2"  width="64" height="17" rx="2" fill="#059669" opacity="0.8"/>
  <rect x="4"  y="2"  width="6"  height="17" rx="1" fill="#34d399" opacity="0.9"/>
</g>

<circle cx="270" cy="150" r="4"   fill="#d4a843" opacity="0.6"/>
<circle cx="415" cy="170" r="3"   fill="#c4b5fd" opacity="0.7"/>
<circle cx="290" cy="265" r="3.5" fill="#34d399" opacity="0.55"/>
<circle cx="400" cy="258" r="3"   fill="#60a5fa" opacity="0.6"/>

<path d="M275 153 Q295 180 290 258" fill="none" stroke="#d4a843" stroke-width="0.6" stroke-dasharray="3 4" opacity="0.3"/>
<path d="M410 172 Q420 210 403 255" fill="none" stroke="#c4b5fd" stroke-width="0.6" stroke-dasharray="3 4" opacity="0.3"/>
<line x1="220" y1="355" x2="270" y2="265" stroke="#818cf8" stroke-width="0.5" stroke-dasharray="3 4" opacity="0.25"/>
<line x1="490" y1="330" x2="403" y2="258" stroke="#60a5fa" stroke-width="0.5" stroke-dasharray="3 4" opacity="0.25"/>

<text x="340" y="430" text-anchor="middle" font-family="Georgia, serif" font-size="32" font-weight="700" fill="#d4a843" opacity="0.92" letter-spacing="3">EduSphere</text>
<text x="340" y="458" text-anchor="middle" font-family="Arial, sans-serif" font-size="13" fill="#c4b5fd" opacity="0.7" letter-spacing="5">ACADEMIC DISCUSSION PLATFORM</text>

<line x1="260" y1="466" x2="420" y2="466" stroke="#d4a843" stroke-width="0.8" opacity="0.35"/>
<circle cx="260" cy="466" r="2" fill="#d4a843" opacity="0.5"/>
<circle cx="420" cy="466" r="2" fill="#d4a843" opacity="0.5"/>

<g opacity="0.7">
  <line x1="450" y1="380" x2="450" y2="392" stroke="#fde68a" stroke-width="1.2"/>
  <line x1="444" y1="386" x2="456" y2="386" stroke="#fde68a" stroke-width="1.2"/>
</g>
<g opacity="0.5">
  <line x1="230" y1="420" x2="230" y2="430" stroke="#c4b5fd" stroke-width="1"/>
  <line x1="225" y1="425" x2="235" y2="425" stroke="#c4b5fd" stroke-width="1"/>
</g>
<g opacity="0.4">
  <line x1="570" y1="310" x2="570" y2="318" stroke="#34d399" stroke-width="1"/>
  <line x1="566" y1="314" x2="574" y2="314" stroke="#34d399" stroke-width="1"/>
</g>
</svg>
